<?xml version="1.0" encoding="UTF-8"?><!DOCTYPE svg  PUBLIC '-//W3C//DTD SVG 1.1//EN'  'http://www.w3.org/Graphics/SVG/1.1/DTD/svg11.dtd'><svg enable-background="new 0 0 482.139 482.139" version="1.1" viewBox="0 0 482.139 482.139" xml:space="preserve" xmlns="http://www.w3.org/2000/svg"><g fill="#fff">	<path d="m69.826 105.07c-4.004 0-6.713 0.396-8.132 0.774v25.689c1.687 0.378 3.751 0.504 6.588 0.504 10.464 0 16.894-5.279 16.894-14.185 0-8.005-5.547-12.782-15.35-12.782z"/>	<path d="m249.15 117.85c0-8.006-5.549-12.782-15.352-12.782-4.004 0-6.715 0.396-8.133 0.774v25.689c1.67 0.378 3.75 0.504 6.588 0.504 10.434 0 16.897-5.279 16.897-14.185z"/>	<path d="m357.17 0h-193.65c-28.29 0-51.316 23.041-51.316 51.315v9.504h-88.43c-11.428 0-20.68 9.251-20.68 20.677v105.3c0 11.426 9.252 20.678 20.68 20.678h88.43v223.36c0 28.305 23.026 51.315 51.316 51.315h264.22c28.275 0 51.301-23.01 51.301-51.315v-309.38l-121.87-121.45zm-260.49 137.98c-6.715 6.32-16.643 9.158-28.273 9.158-2.586 0-4.887-0.127-6.714-0.378v31.094h-19.482v-85.815c6.068-1.024 14.595-1.796 26.589-1.796 12.12 0 20.788 2.317 26.589 6.966 5.547 4.381 9.297 11.616 9.297 20.126 0 8.512-2.837 15.745-8.006 20.645zm72.685-13.679v-33.412h19.607v86.966h-19.607v-36.391h-32.402v36.391h-19.731v-86.966h19.731v33.412h32.402zm258.38 326.41h-264.22c-10.953 0-19.874-8.92-19.874-19.889v-223.36h139.73c11.426 0 20.676-9.252 20.676-20.678v-105.3c0-11.426-9.25-20.677-20.676-20.677h-139.73v-9.504c0-10.938 8.92-19.858 19.874-19.858l181.89-0.189v67.234c0 19.637 15.934 35.586 35.588 35.586l65.863-0.189 0.74 296.92c-1e-3 10.969-8.907 19.889-19.86 19.889zm-221.56-272.86v-85.816c6.051-1.024 14.594-1.796 26.572-1.796 12.133 0 20.771 2.317 26.602 6.966 5.549 4.381 9.268 11.616 9.268 20.126 0 8.512-2.836 15.745-7.975 20.645-6.713 6.32-16.674 9.158-28.275 9.158-2.584 0-4.916-0.127-6.713-0.378v31.094h-19.479z"/>	<path d="m296.02 286.96c0-4.713-2.412-9.111-6.383-11.647-3.973-2.539-8.984-2.87-13.256-0.883l-76.531 35.555c-6.289 2.916-10.322 9.236-10.322 16.186 0 6.935 4.033 13.255 10.322 16.171l76.531 35.57c4.272 1.985 9.268 1.654 13.256-0.883 3.971-2.537 6.383-6.934 6.383-11.662 0-5.484-3.248-10.449-8.275-12.654l-60.582-26.557 60.582-26.541c5.027-2.208 8.275-7.172 8.275-12.655z"/>	<path d="m360.38 248.29c-8.953 0-17.068 1.545-23.705 3.734-6.037 2.001-9.359 8.464-7.471 14.531 1.893 6.036 8.244 9.488 14.326 7.77 3.326-0.93 6.762-1.449 9.883-1.449 10.244 0.409 14.973 5.139 14.973 12.309 0 6.981-5.328 13.539-11.898 21.323-9.236 11.08-12.719 21.749-12.09 32.183l0.064 1.798c0.076 1.985 1.701 3.546 3.688 3.546h20.031c2.033 0 3.688-1.656 3.688-3.688-0.205-9.236 2.854-17.227 10.449-25.643 7.803-8.621 17.43-18.864 17.43-34.436-1e-3 -17.022-12.31-31.978-39.368-31.978z"/>	<path d="m357.53 353.66c-10.668 0-18.264 7.801-18.264 18.659 0 10.669 7.391 18.661 18.264 18.661 11.066 0 18.457-7.992 18.457-18.661-0.236-10.858-7.39-18.659-18.457-18.659z"/></g></svg>